# xmcd
#
# Track frame offsets: 
#        150
#        17836
#        31288
#        46514
#        61382
#        72698
#        85588
#        100936
#        124848
#        137419
#        152471
#        173048
#        191842
#
# Disc length: 2889 seconds
#
# Revision: 1
# Processed by: cddbd v1.5.2PL0 Copyright (c) Steve Scherf et al.
# Submitted via: ExactAudioCopy v0.99pb4
#
DISCID=a40b470d
DTITLE=Louis Armstrong - Louis Armstrong Golden Jazz [CD 1)
DYEAR=2004
DGENRE=Jazz
TTITLE0=cabaret
TTITLE1=kiss to build a dream on
TTITLE2=please dont talk about me
TTITLE3=blueberry hill
TTITLE4=hello dolly
TTITLE5=thats my desire
TTITLE6=mack the knife
TTITLE7=i want a big butter and egg man
TTITLE8=jelly roll blues
TTITLE9=new orleans stomp
TTITLE10=st james infermary
TTITLE11=someday you'll be sorry
TTITLE12=sweethearts on parade
EXTD=YEAR: 2004
EXTT0=
EXTT1=
EXTT2=
EXTT3=
EXTT4=
EXTT5=
EXTT6=
EXTT7=
EXTT8=
EXTT9=
EXTT10=
EXTT11=
EXTT12=
PLAYORDER=
